<?xml version="1.0" standalone="no"?>
<!DOCTYPE svg PUBLIC "-//W3C//DTD SVG 1.1//EN" "http://www.w3.org/Graphics/SVG/1.1/DTD/svg11.dtd" >
<!--
2013-9-30: Created.
-->
<svg>
<metadata>
Created by iconfont
</metadata>
<defs>

<font id="iconfont" horiz-adv-x="1024" >
  <font-face
    font-family="iconfont"
    font-weight="500"
    font-stretch="normal"
    units-per-em="1024"
    ascent="896"
    descent="-128"
  />
    <missing-glyph />
    
    <glyph glyph-name="guidedrawer" unicode="&#58921;" d="M38.980803 29.440911c-21.516036 0-38.959314-17.302061-38.959314-38.684044 0-21.354354 17.443277-38.669718 38.959314-38.669718 21.51399 0 38.957267 17.316387 38.957267 38.669718C77.937047 12.139873 60.493769 29.440911 38.980803 29.440911zM38.980803 338.903032c-21.516036 0-38.959314-17.330714-38.959314-38.684044 0-21.36868 17.443277-38.685068 38.959314-38.685068 21.51399 0 38.957267 17.316387 38.957267 38.685068C77.937047 321.573341 60.493769 338.903032 38.980803 338.903032zM272.723382 570.981714l709.524702 0c21.51399 0 38.957267 17.316387 38.957267 38.684044s-17.443277 38.685068-38.957267 38.685068L272.723382 648.350826c-21.516036 0-38.957267-17.316387-38.957267-38.685068S251.207345 570.981714 272.723382 570.981714zM38.980803 648.350826c-21.516036 0-38.959314-17.316387-38.959314-38.685068s17.443277-38.684044 38.959314-38.684044c21.51399 0 38.957267 17.316387 38.957267 38.684044S60.493769 648.350826 38.980803 648.350826zM982.248084 29.440911 272.723382 29.440911c-21.516036 0-38.957267-17.302061-38.957267-38.669718 0-21.36868 17.441231-38.684044 38.957267-38.684044l709.524702 0c21.51399 0 38.957267 17.316387 38.957267 38.684044C1021.205351 12.139873 1003.762073 29.440911 982.248084 29.440911zM982.248084 338.903032 272.723382 338.903032c-21.516036 0-38.957267-17.330714-38.957267-38.684044 0-21.36868 17.441231-38.685068 38.957267-38.685068l709.524702 0c21.51399 0 38.957267 17.316387 38.957267 38.685068C1021.205351 321.573341 1003.762073 338.903032 982.248084 338.903032z"  horiz-adv-x="1024" />

    
    <glyph glyph-name="07wallet" unicode="&#58889;" d="M1002.666667 42.666667 1002.666667 42.666667c0-58.922667-47.744-106.666667-106.666667-106.666667l0 0L128-64l0 0c-58.922667 0-106.666667 47.744-106.666667 106.666667L21.333333 661.333333c0 47.125333 38.208 85.333333 85.333333 85.333333l0 0 430.314667 0 172.778667 62.592c10.944 3.989333 23.061333-1.664 27.050667-12.565333L755.008 746.666667 832 746.666667c47.125333 0 85.333333-38.208 85.333333-85.333333l0-42.666667 0 0c47.125333 0 85.333333-38.208 85.333333-85.333333L1002.666667 42.666667zM106.666667 704 106.666667 704c-23.552 0-42.666667-19.114667-42.666667-42.666667s19.114667-42.666667 42.666667-42.666667l73.493333 0 0 0 4.032 0c0.277333 0.106667 0.448 0.341333 0.725333 0.448L419.2 704 106.666667 704zM726.997333 700.138667l-22.656 62.378667-0.021333 0 0 0L660.565333 746.666667l0.064 0-117.632-42.666667-0.213333 0-235.498667-85.333333 449.322667 0L726.997333 700.138667zM874.666667 661.333333c0 23.552-19.114667 42.666667-42.666667 42.666667l-61.504 0 31.018667-85.333333L874.666667 618.666667l0 0L874.666667 661.333333zM917.333333 576 106.666667 576l0 0c-15.616 0-30.08 4.501333-42.666667 11.84L64 42.666667c0-35.349333 28.672-64 64-64l768 0c35.349333 0 64 28.650667 64 64l0 149.333333-85.333333 0c-47.125333 0-85.333333 38.208-85.333333 85.333333s38.208 85.333333 85.333333 85.333333l85.333333 0 0 170.666667C960 556.885333 940.885333 576 917.333333 576zM960 234.666667l0 85.333333-85.333333 0c-23.552 0-42.666667-19.114667-42.666667-42.666667s19.114667-42.666667 42.666667-42.666667L960 234.666667zM874.666667 298.666667l42.666667 0 0-42.666667-42.666667 0L874.666667 298.666667z"  horiz-adv-x="1024" />

    
    <glyph glyph-name="cc-wallet" unicode="&#59057;" d="M958.676 73.618c0-28.015-11.352-53.368-29.691-71.728-18.338-18.358-43.663-29.722-71.649-29.722l-692.642 0c-27.985 0-53.312 11.363-71.616 29.722-18.338 18.358-29.689 43.713-29.689 71.728l0 558.533c0 22.692 9.203 43.235 24.031 58.113 14.861 14.878 35.382 24.056 58.05 24.056l387.225 0 154.957 56.203c6.237 2.285 12.815 1.808 18.406-0.785 5.624-2.628 10.226-7.371 12.51-13.615l15.202-41.802 65.856 0c22.666 0 43.187-9.178 58.049-24.056 14.828-14.879 24.031-35.421 24.031-58.113l0-33.544c20.622-1.262 39.2-10.169 52.902-23.92 14.86-14.844 24.066-35.387 24.066-58.079l-0.034 0 0-442.991 0.035 0zM145.469 665.559c-9.204 0-17.555-3.72-23.588-9.759-6.033-6.074-9.783-14.4-9.783-23.648 0-9.213 3.749-17.539 9.783-23.614 6.033-6.04 14.385-9.759 23.588-9.759l68.821 0.069 183.965 66.711-252.786 0zM700.128 665.456l-18.68 51.527-7.362-2.663 0.035 0-318.643-115.54 368.887 0-24.236 66.677zM832.997 632.151c0 9.248-3.749 17.573-9.783 23.648-6.033 6.04-14.386 9.759-23.588 9.759l-48.199 0 24.271-66.78 57.299 0 0 33.373zM876.594 550.016l-731.126 0c-7.261 0-14.316 1.023-21.066 2.9-4.261 1.159-8.351 2.695-12.305 4.504l0-483.803c0-14.571 5.896-27.708 15.407-37.262 9.511-9.521 22.667-15.424 37.189-15.424l692.642 0c14.556 0 27.678 5.904 37.222 15.424 9.511 9.52 15.408 22.691 15.408 37.262l0 129.704-71.856 0c-22.666 0-43.189 9.181-58.05 24.058-14.828 14.878-24.03 35.421-24.03 58.079 0 22.691 9.203 43.235 24.03 58.112 14.86 14.878 35.383 24.057 58.05 24.057l71.856 0 0 148.983c0 9.214-3.749 17.573-9.784 23.614-6.032 6.04-14.383 9.793-23.587 9.793l0 0zM909.965 252.083l0 66.781-71.856 0c-9.204 0-17.554-3.72-23.588-9.759-6.033-6.073-9.783-14.4-9.783-23.647 0-9.214 3.749-17.54 9.783-23.613 6.033-6.04 14.385-9.761 23.588-9.761l71.856 0zM838.11 309.856l43.597 0 0-48.763-48.709 0 0 48.763 5.112 0z"  horiz-adv-x="1024" />

    
    <glyph glyph-name="download" unicode="&#59042;" d="M991.153359 228.352c12.288-6.827008 21.504-17.748992 27.648-32.768 6.144-15.019008 7.168-28.672 3.072-40.96 0 0-28.672-157.696-28.672-157.696-2.731008-13.652992-10.24-24.916992-22.528-33.792-12.288-8.875008-25.940992-13.312-40.96-13.312 0 0-835.584 0-835.584 0-15.019008 0-28.672 4.436992-40.96 13.312-12.288 8.875008-19.796992 20.139008-22.528 33.792 0 0-28.672 157.696-28.672 157.696-6.827008 32.768 4.096 57.344 32.768 73.728 0 0 161.792 110.592 161.792 110.592 0 0 100.352 0 100.352 0 0 0-174.08-133.12-174.08-133.12 0 0 182.272 0 182.272 0 5.460992 0 9.556992-2.731008 12.288-8.192 0 0 40.96-112.64 40.96-112.64 0 0 307.2 0 307.2 0 0 0 40.96 112.64 40.96 112.64 5.460992 5.460992 9.556992 8.192 12.288 8.192 0 0 182.272 0 182.272 0 0 0-174.08 133.12-174.08 133.12 0 0 100.352 0 100.352 0 0 0 163.84-110.592 163.84-110.592m-212.992 329.728c0 0-266.24-249.856-266.24-249.856 0 0-266.24 249.856-266.24 249.856 0 0 169.984 0 169.984 0 0 0 0 262.144 0 262.144 0 0 194.56 0 194.56 0 0 0 0-262.144 0-262.144 0 0 167.936 0 167.936 0 0 0 0 0 0 0"  horiz-adv-x="1025" />

    
    <glyph glyph-name="lock" unicode="&#58925;" d="M909.312-125.533091 114.688-125.533091 114.688 425.984l130.909091 0 0 201.146182c0 146.897455 119.505455 266.402909 266.426182 266.402909 146.897455 0 266.379636-119.505455 266.379636-266.402909l0-201.146182 130.909091 0L909.312-125.533091zM161.233455-78.987636l701.556364 0L862.789818 379.438545 161.233455 379.438545 161.233455-78.987636zM292.142545 425.984l439.714909 0 0 201.146182c0 121.227636-98.606545 219.857455-219.834182 219.857455-121.227636 0-219.880727-98.629818-219.880727-219.857455L292.142545 425.984z"  horiz-adv-x="1024" />

    
    <glyph glyph-name="note" unicode="&#58919;" d="M512.761856 665.893888l-360.31488 0L152.446976 24.7552l589.847552 0L742.294528 351.373312l51.291136 48.973824L793.585664 24.7552c0-28.324864-22.966272-51.291136-51.291136-51.291136l-589.847552 0c-28.324864 0-51.291136 22.966272-51.291136 51.291136l0 641.138688c0 28.325888 22.966272 51.291136 51.291136 51.291136L563.289088 717.185024l1.276928-1.277952L512.761856 665.893888zM806.509568 743.293952c15.490048-0.776192 30.027776-7.675904 40.445952-19.171328 13.686784-10.894336 22.514688-26.747904 24.594432-44.115968-1.62816-18.169856-10.317824-34.987008-24.205312-46.83264-14.263296-14.738432-126.02368-125.159424-332.102656-328.269824l-15.777792-15.552512c-23.629824-7.300096-80.217088-25.483264-122.993664-39.281664 13.774848 45.48096 30.304256 100.427776 37.666816 126.399488 44.053504 44.003328 335.307776 334.820352 346.377216 345.726976 12.335104 12.284928 28.663808 19.74784 46.031872 21.050368M806.546432 794.534912c-30.954496-1.214464-60.319744-14.062592-82.221056-35.989504C712.329216 746.699776 372.349952 407.209984 372.349952 407.209984c-2.679808-2.705408-4.608-6.048768-5.597184-9.730048-9.203712-34.035712-55.360512-185.116672-55.824384-186.61888-2.354176-7.713792-0.25088-16.104448 5.459968-21.801984 4.007936-4.032512 9.46688-6.286336 15.152128-6.273024 2.229248-0.013312 4.458496 0.324608 6.587392 0.989184 1.577984 0.526336 157.492224 50.939904 183.149568 58.60352 3.381248 1.01376 6.462464 2.842624 8.979456 5.310464 16.191488 15.978496 328.671232 323.611648 353.902592 349.745152 26.145792 26.923008 39.156736 55.022592 38.656 83.34848-1.990656 31.118336-16.57856 60.094464-40.3968 80.2304-19.871744 20.774912-47.19616 32.80896-75.933696 33.434624l0 0L806.546432 794.534912z"  horiz-adv-x="1024" />

    
    <glyph glyph-name="weibiao45128" unicode="&#58930;" d="M966.981818-86.109091c0 18.618182-2.327273 39.563636-6.981818 58.181818-6.981818 39.563636-18.618182 76.8-34.909091 114.036364-30.254545 62.836364-72.145455 116.363636-125.672727 160.581818-41.890909 34.909091-90.763636 60.509091-141.963636 76.8-2.327273 0-6.981818 2.327273-9.309091 2.327273 0 0 2.327273 0 2.327273 0 23.272727 11.636364 44.218182 25.6 65.163636 44.218182 27.927273 25.6 51.2 53.527273 69.818182 88.436364 25.6 46.545455 34.909091 97.745455 32.581818 151.272727 0 16.290909-2.327273 32.581818-6.981818 48.872727C797.090909 714.472727 771.490909 761.018182 731.927273 802.909091c-16.290909 18.618182-34.909091 32.581818-55.854545 46.545455-44.218182 27.927273-93.090909 44.218182-144.290909 46.545455-13.963636 0-27.927273 0-44.218182 0-16.290909-2.327273-32.581818-4.654545-48.872727-6.981818-53.527273-11.636364-97.745455-37.236364-137.309091-74.472727-25.6-23.272727-46.545455-51.2-62.836364-83.781818-23.272727-46.545455-32.581818-95.418182-30.254545-146.618182 0-13.963636 2.327273-27.927273 4.654545-41.890909 11.636364-55.854545 34.909091-102.4 74.472727-144.290909 25.6-27.927273 55.854545-48.872727 88.436364-67.490909 0 0 2.327273 0 2.327273-2.327273-11.636364-2.327273-20.945455-6.981818-32.581818-11.636364-11.636364-4.654545-20.945455-9.309091-30.254545-13.963636-58.181818-27.927273-107.054545-65.163636-148.945455-114.036364-23.272727-25.6-41.890909-53.527273-58.181818-83.781818-20.945455-37.236364-34.909091-76.8-41.890909-118.690909-4.654545-18.618182-6.981818-37.236364-6.981818-55.854545C57.018182-74.472727 57.018182-81.454545 57.018182-88.436364c0-6.981818 0-13.963636 0-18.618182C59.345455-121.018182 70.981818-128 84.945455-128L941.381818-128l0 0c13.963636 0 25.6 11.636364 25.6 25.6C966.981818-97.745455 966.981818-90.763636 966.981818-86.109091zM368.872727 390.981818c-20.945455 16.290909-41.890909 32.581818-58.181818 55.854545-16.290909 23.272727-30.254545 48.872727-39.563636 76.8-6.981818 20.945455-9.309091 41.890909-11.636364 62.836364 0 13.963636 0 27.927273 2.327273 44.218182C266.472727 660.945455 275.781818 688.872727 289.745455 714.472727c13.963636 27.927273 34.909091 51.2 58.181818 69.818182C368.872727 802.909091 392.145455 816.872727 415.418182 826.181818c25.6 11.636364 53.527273 16.290909 83.781818 18.618182 11.636364 0 20.945455 0 32.581818 0 11.636364 0 23.272727-2.327273 34.909091-4.654545 25.6-4.654545 48.872727-16.290909 72.145455-27.927273 20.945455-11.636364 39.563636-25.6 55.854545-44.218182 9.309091-9.309091 18.618182-20.945455 25.6-32.581818 13.963636-20.945455 25.6-41.890909 32.581818-67.490909 6.981818-20.945455 9.309091-41.890909 11.636364-62.836364 0-9.309091 0-20.945455 0-30.254545 0-13.963636-2.327273-25.6-6.981818-37.236364-4.654545-23.272727-13.963636-44.218182-25.6-62.836364-13.963636-25.6-32.581818-46.545455-55.854545-67.490909-16.290909-13.963636-34.909091-25.6-55.854545-34.909091-20.945455-9.309091-41.890909-16.290909-65.163636-20.945455-13.963636-2.327273-27.927273-4.654545-44.218182-4.654545 0 0-2.327273 0-2.327273 0 0 0-2.327273 0-2.327273 0-2.327273 0-4.654545 0-6.981818 0-9.309091 0-18.618182 2.327273-27.927273 2.327273-25.6 4.654545-51.2 11.636364-76.8 23.272727C387.490909 379.345455 378.181818 384 368.872727 390.981818zM112.872727-41.890909c4.654545 25.6 9.309091 48.872727 18.618182 72.145455C150.109091 81.454545 178.036364 130.327273 217.6 169.890909c25.6 27.927273 55.854545 51.2 88.436364 69.818182 27.927273 16.290909 58.181818 30.254545 88.436364 39.563636 20.945455 6.981818 44.218182 11.636364 67.490909 13.963636 13.963636 2.327273 30.254545 2.327273 44.218182 2.327273 0 0 2.327273 0 2.327273 0 4.654545 0 6.981818 0 9.309091 0 0 0 2.327273 0 2.327273 0 4.654545 0 9.309091 0 16.290909 0 16.290909 0 34.909091-2.327273 51.2-6.981818 34.909091-6.981818 69.818182-18.618182 102.4-32.581818 53.527273-25.6 100.072727-60.509091 137.309091-107.054545 32.581818-39.563636 58.181818-83.781818 72.145455-132.654545 6.981818-25.6 13.963636-51.2 16.290909-79.127273 0-4.654545 0-9.309091 0-13.963636L108.218182-76.8C110.545455-65.163636 110.545455-53.527273 112.872727-41.890909z"  horiz-adv-x="1024" />

    
    <glyph glyph-name="send" unicode="&#59044;" d="M940.8 832C924.6 824 88.3 431.7 88.3 431.7c-53.2-47.8 0-95.5 0-95.5L340 210c0 0 83-166.4 116.2-232.9 33.2-66.5 97.8-33.1 107-9.1 9.2 24 390 830.4 396.8 844.8S957 840 940.8 832zM104.6 385.9c0.1 4.2 3.2 8.7 6.7 12.4 61.6 28.9 506.3 237.5 725.7 340.6L351.8 248.8l-239.3 120C108.9 373.3 104.6 380.2 104.6 385.9zM526.8-15.3c-2.4-2.3-9.1-6.6-16.2-6.6-2.5 0-10.1 0-18.6 17-28.8 57.5-95.6 191.5-112.4 225.1l490 494.9C565.4 70.3 531.9-3.2 526.8-15.3z"  horiz-adv-x="1024" />

    
    <glyph glyph-name="oacute" unicode="&#58900;" d="M966 628l-586 0q-12 0-23 4t-17 10q-8 8-13 18t-5 20q0 12 5 22t13 16q6 8 17 12t23 4l586 0q12 0 23-4t19-12q6-6 11-16t5-22q0-10-5-20t-11-18q-8-6-19-10t-23-4l0 0 0 0zM966 298l-586 0q-12 0-23 4t-17 12q-8 8-13 17t-5 21 5 21 13 17q6 8 17 12t23 4l586 0q12 0 23-4t19-12q6-8 11-17t5-21-5-21-11-17q-8-8-19-12t-23-4l0 0 0 0zM966-30l-586 0q-12 0-23 4t-17 12q-8 6-13 16t-5 22q0 10 5 20t13 18q6 6 17 10t23 4l586 0q12 0 23-4t19-10q6-8 11-18t5-20q0-12-5-22t-11-16q-8-8-19-12t-23-4l0 0 0 0zM186 680q0-18-7-34t-21-26q-12-12-29-19t-35-7q-20 0-37 7t-29 19q-14 10-21 26t-7 34 7 34 21 28q12 12 29 19t37 7q18 0 35-7t29-19q14-12 21-28t7-34l0 0 0 0zM186 352q0-18-7-34t-21-28q-12-12-29-19t-35-7q-20 0-37 7t-29 19q-14 12-21 28t-7 34 7 34 21 28q12 12 29 19t37 7q18 0 35-7t29-19q14-12 21-28t7-34l0 0 0 0zM186 24q0-18-7-34t-21-28q-12-12-29-19t-35-7q-20 0-37 7t-29 19q-14 12-21 28t-7 34 7 34 21 26q12 12 29 19t37 7q18 0 35-7t29-19q14-10 21-26t7-34l0 0 0 0z"  horiz-adv-x="1024" />

    
    <glyph glyph-name="classnotes" unicode="&#58947;" d="M591.962846 582.816759 148.144517 582.816759c-12.28373 0-22.237021 9.953291-22.237021 22.237021s9.953291 22.237021 22.237021 22.237021l443.818328 0c12.280766 0 22.237021-9.953291 22.237021-22.237021S604.243611 582.816759 591.962846 582.816759zM486.019747 483.1445 148.144517 483.1445c-12.28373 0-22.237021 9.953291-22.237021 22.237021 0 12.28373 9.953291 22.237021 22.237021 22.237021l337.875229 0c12.280766 0 22.237021-9.953291 22.237021-22.237021C508.256768 493.097791 498.297548 483.1445 486.019747 483.1445zM259.973014 184.130689 148.144517 184.130689c-12.28373 0-22.237021 9.953291-22.237021 22.237021 0 12.28373 9.953291 22.237021 22.237021 22.237021l111.828497 0c12.280766 0 22.237021-9.953291 22.237021-22.237021C282.210036 194.086944 272.250815 184.130689 259.973014 184.130689zM211.496308 84.45843 148.144517 84.45843c-12.28373 0-22.237021 9.953291-22.237021 22.237021 0 12.28373 9.953291 22.237021 22.237021 22.237021l63.351791 0c12.280766 0 22.237021-9.953291 22.237021-22.237021C233.733329 94.414686 223.777074 84.45843 211.496308 84.45843zM988.523056 792.873591l-50.724128 37.823691c-12.772945 9.523375-28.478212 13.514179-44.245742 11.204494-15.761601-2.297826-29.684941-10.593717-39.205351-23.363697-0.00593-0.00593-0.01186-0.014825-0.014825-0.020755l-125.745907-170.42453L728.587104 817.343209c0 12.28373-9.953291 22.237021-22.237021 22.237021l-92.150216 0L614.199867 873.762979c0 12.28373-9.956256 22.237021-22.237021 22.237021-12.28373 0-22.237021-9.953291-22.237021-22.237021l0-34.182749L503.240096 839.58023 503.240096 873.762979c0 12.28373-9.953291 22.237021-22.237021 22.237021-12.280766 0-22.237021-9.953291-22.237021-22.237021l0-34.182749-66.479798 0L392.286255 873.762979c0 12.28373-9.953291 22.237021-22.237021 22.237021-12.28373 0-22.237021-9.953291-22.237021-22.237021l0-34.182749L281.335379 839.58023 281.335379 873.762979c0 12.28373-9.956256 22.237021-22.237021 22.237021-12.28373 0-22.237021-9.953291-22.237021-22.237021l0-34.182749L170.381539 839.58023 170.381539 873.762979c0 12.28373-9.956256 22.237021-22.237021 22.237021-12.28373 0-22.237021-9.953291-22.237021-22.237021l0-34.182749L33.751351 839.58023c-12.280766 0-22.237021-9.953291-22.237021-22.237021l0-923.103223c0-12.28373 9.956256-22.237021 22.237021-22.237021l672.601697 0c12.28373 0 22.237021 9.953291 22.237021 22.237021L728.590069 338.182842l272.083296 371.221866c0.002965 0.00593 0.008895 0.008895 0.014825 0.014825C1020.336821 735.78078 1014.884304 773.216064 988.523056 792.873591zM684.113061-83.522993 55.988372-83.522993 55.988372 795.106188l69.919124 0 0-34.176819c0-12.28373 9.953291-22.237021 22.237021-22.237021 12.280766 0 22.237021 9.953291 22.237021 22.237021L170.381539 795.106188l66.479798 0 0-34.176819c0-12.28373 9.953291-22.237021 22.237021-22.237021 12.280766 0 22.237021 9.953291 22.237021 22.237021L281.335379 795.106188l66.479798 0 0-34.176819c0-12.28373 9.953291-22.237021 22.237021-22.237021 12.28373 0 22.237021 9.953291 22.237021 22.237021L392.28922 795.106188l66.479798 0 0-34.176819c0-12.28373 9.956256-22.237021 22.237021-22.237021 12.28373 0 22.237021 9.953291 22.237021 22.237021L503.243061 795.106188l66.485728 0 0-34.176819c0-12.28373 9.953291-22.237021 22.237021-22.237021 12.280766 0 22.237021 9.953291 22.237021 22.237021L614.202832 795.106188l69.913195 0 0-208.03771-115.967548-159.122194L148.144517 427.946284c-12.28373 0-22.237021-9.953291-22.237021-22.237021 0-12.28373 9.953291-22.237021 22.237021-22.237021l387.591279 0c0 0-126.430808-173.487309-126.454527-173.522888 0 0 0.00593 0 0.01186 0-1.435029-1.995402-2.579494-4.245789-3.305904-6.736335l-50.848655-173.949839L148.144517 29.263179c-12.28373 0-22.237021-9.953291-22.237021-22.237021 0-12.28373 9.953291-22.237021 22.237021-22.237021 0 0 223.897154 0.01779 224.015751 0.01779 0 0.002965-0.002965 0.00593-0.00593 0.00593 4.070857 0.065229 8.135785 1.224519 11.714463 3.537169l166.211356 107.416672c2.285966 1.476538 4.18649 3.317764 5.728257 5.375429 0.053369 0.071158 128.307612 176.019365 128.307612 176.019365L684.116026-83.522993zM439.689655 160.013898l59.369882-44.272427-89.152665-57.614639L439.689655 160.013898zM533.277864 145.702151l-75.027709 55.94538L808.966523 682.871494l75.027709-55.94538L533.277864 145.702151zM910.385129 662.724753l-75.030674 55.94538 23.944824 32.110259 75.027709-55.95131L910.385129 662.724753zM965.028902 736.006115c-0.00593-0.00593-0.01186-0.014825-0.014825-0.020755l-4.103472-5.499957-75.027709 55.95131 4.100507 5.496992c0.00593 0.00593 0.01186 0.01186 0.01779 0.01779 2.419388 3.246605 5.959522 5.35764 9.96515 5.941732 4.011559 0.581127 7.996433-0.432881 11.240073-2.849304l50.727093-37.823691C968.63723 752.224316 970.02482 742.706871 965.028902 736.006115z"  horiz-adv-x="1024" />

    
    <glyph glyph-name="star" unicode="&#58943;" d="M514.56 757.76l112.64-225.28c7.68-15.36 20.48-25.6 38.4-28.16l248.32-38.4-179.2-174.080c-12.8-12.8-17.92-28.16-15.36-46.080l43.52-253.44-225.28 120.32c-7.68 5.12-15.36 5.12-23.040 5.12-7.68 0-17.92-2.56-25.6-5.12l-222.72-122.88 46.080 245.76c2.56 17.92-2.56 33.28-15.36 46.080l-189.44 181.76 250.88 35.84c15.36 2.56 30.72 12.8 38.4 28.16l117.76 230.4M514.56 870.4l-161.28-317.44-353.28-51.2 266.24-256-69.12-350.72 320 174.080 314.88-163.84-61.44 350.72 250.88 245.76-348.16 53.76-158.72 314.88z"  horiz-adv-x="1024" />

    
    <glyph glyph-name="sharecash" unicode="&#58896;" d="M845.43051 717.058538l-0.921999 0.478907 0 0.444115C759.83504 802.652985 642.894677 854.817042 513.784134 854.817042c-128.597867 0-245.333568-52.164057-330.014202-136.356574l-0.675382-0.923022C98.901009 632.830205 46.053384 516.402519 46.053384 387.291976c0-128.631636 52.368718-245.778706 136.562259-330.24547l0.956791-0.445138c84.432994-84.671425 201.134927-137.485281 330.210677-137.485281 129.110543 0 246.050905 52.334949 330.279239 137.006374l0.445138 0.478907c84.637656 84.432994 137.279596 201.612811 137.279596 330.689584C981.788108 515.923612 929.624051 632.38609 845.43051 717.058538L845.43051 717.058538zM797.949103 102.886531 797.949103 102.886531c-72.262814-72.742744-172.8313-117.624954-284.164968-117.624954-110.822015 0-211.42427 44.88221-284.132222 117.624954-72.741721 72.741721-117.658723 173.343977-117.658723 284.405445 0 110.856807 44.917002 211.423247 117.658723 283.926538C302.359864 743.960235 402.96212 789.116691 513.784134 789.116691c111.334691 0 211.902154-45.155433 284.164968-117.898177 72.981175-72.503291 117.8992-173.069731 117.8992-283.926538C915.848303 276.229484 870.931301 175.628252 797.949103 102.886531L797.949103 102.886531zM755.18616 628.660232 755.18616 628.660232c-61.768809 61.256132-146.877185 99.644441-241.402025 99.644441-94.209662 0-179.12054-38.388309-240.85558-99.644441-61.73504-61.73504-100.123348-147.364279-100.123348-241.368256 0-94.482885 38.388309-179.599448 100.123348-241.334487 61.73504-61.768809 146.645918-99.882871 240.85558-99.882871 94.52484 0 179.633217 38.114063 241.402025 99.882871 61.73504 61.73504 100.054787 146.851603 100.054787 241.334487C855.24197 481.295953 816.921199 566.925193 755.18616 628.660232L755.18616 628.660232zM727.121987 173.986869 727.121987 173.986869c-54.522778-54.692646-129.58945-88.363514-213.337853-88.363514-83.236749 0-158.542876 33.669844-212.791407 88.363514-54.966892 54.283324-88.63776 130.067334-88.63776 213.304084 0 82.791611 33.670867 158.541853 88.63776 213.304084 54.248531 54.248531 129.554658 87.919399 212.791407 87.919399 83.749426 0 158.815075-33.670867 213.337853-87.919399 54.726415-54.762231 88.398306-130.512473 88.398306-213.304084C815.520293 304.055227 781.849426 228.270193 727.121987 173.986869L727.121987 173.986869zM674.069701 581.247386 556.855092 381.890966l92.329848 0 0-44.062542L541.608853 337.828424l0-60.709687 107.575064 0 0-44.642756L541.608853 232.475981l0-88.398306-55.377238 0 0 88.398306-111.540376 0 0 44.642756 111.540376 0 0 60.709687-111.540376 0 0 44.062542 95.166453 0L353.806583 581.247386l62.384839 0c54.248531-98.994642 87.167269-161.789826 98.857519-188.349739l1.128707 0c3.965312 10.93812 14.767332 32.952506 32.473599 66.075905l66.38392 122.273834L674.069701 581.247386z"  horiz-adv-x="1024" />

    
    <glyph glyph-name="active" unicode="&#58881;" d="M511.897672-60.872589C266.207255-60.872589 66.973918 138.258419 66.973918 384.051164c0 245.690417 199.335665 444.923753 445.026082 444.923753 245.792745 0 445.12841-199.233337 445.12841-444.923753C957.026082 138.258419 757.690417-60.872589 511.897672-60.872589zM511.897672 763.484761c-209.261517 0-379.535925-170.17208-379.535925-379.433596 0-209.261517 170.17208-379.433596 379.535925-379.433596 209.261517 0 379.535925 170.069751 379.535925 379.433596C891.433596 593.312681 721.261517 763.484761 511.897672 763.484761zM499.720596 229.432997c-8.18627-8.18627-18.82842-12.279404-29.572899-12.279404-10.64215 0-21.284301 4.093135-29.470571 12.279404l-139.166583 139.166583c-8.595583 8.493255-12.381733 19.851704-11.870091 31.107825 0.306985 10.130509 4.093135 20.158689 11.870091 27.833317 7.674628 7.776956 17.702808 11.460777 27.935645 11.972419 11.153792 0.409313 22.512241-3.274508 31.107825-11.972419l109.593684-109.491356 192.991306 192.888978c8.595583 8.697911 19.954032 12.381733 31.210153 11.972419 10.130509-0.409313 20.056361-4.093135 27.833317-11.972419 7.674628-7.572299 11.460777-17.702808 11.972419-27.833317 0.409313-11.153792-3.376836-22.61457-11.972419-31.107825L499.720596 229.432997z"  horiz-adv-x="1024" />

    
    <glyph glyph-name="iconmybankcard" unicode="&#58892;" d="M950.857143 798.47619 73.142857 798.47619C32.816762 798.47619 0 765.659429 0 725.333333l0-706.998857c0-40.326095 32.816762-73.142857 73.142857-73.142857l877.714286 0c40.326095 0 73.142857 32.816762 73.142857 73.142857L1024 725.333333C1024 765.659429 991.183238 798.47619 950.857143 798.47619zM73.142857 749.714286l877.714286 0c13.458286 0 24.380952-10.947048 24.380952-24.380952l0-146.285714L48.761905 579.047619 48.761905 725.333333C48.761905 738.767238 59.708952 749.714286 73.142857 749.714286zM950.857143-6.046476 73.142857-6.046476c-13.433905 0-24.380952 10.922667-24.380952 24.380952L48.761905 481.52381l926.47619 0 0-463.189333C975.238095 4.87619 964.315429-6.046476 950.857143-6.046476zM560.761905 213.333333l292.571429 0 0-48.761905-292.571429 0 0 48.761905Z"  horiz-adv-x="1024" />

    
    <glyph glyph-name="database-1" unicode="&#58906;" d="M974.736291 737.559273C953.176436 817.431273 792.706327 896 512 896S70.804945 817.431273 49.263709 737.559273A18.245818 18.245818 0 0 1 46.545455 728.436364v-688.872728a17.501091 17.501091 0 0 1 2.178327-8.3968C70.711855-59.969164 267.431564-128 512-128c244.009891 0 440.413091 67.751564 463.127273 158.552436A18.394764 18.394764 0 0 1 977.454545 39.563636V728.436364a18.245818 18.245818 0 0 1-2.718254 9.122909z m-35.988946-474.298182a45.800727 45.800727 0 0 0-4.822109-12.288 63.115636 63.115636 0 0 0-8.378181-12.027346 100.910545 100.910545 0 0 0-6.7584-7.298327c-1.508073-1.470836-3.165091-2.923055-4.840728-4.393891a153.302109 153.302109 0 0 0-9.793163-7.931345c-1.526691-1.135709-3.165091-2.234182-4.784873-3.351273-4.207709-2.904436-8.6016-5.790255-13.423709-8.620218-1.266036-0.763345-2.625164-1.489455-3.947055-2.234182a307.572364 307.572364 0 0 0-17.594182-9.253236c-0.800582-0.390982-1.6384-0.763345-2.4576-1.135709-6.981818-3.295418-14.280145-6.534982-22.081163-9.662837l-0.670255-0.260654c-42.281891-16.886691-96.367709-31.092364-159.390254-40.401455l-0.949528-0.130327a1024.558545 1024.558545 0 0 0-37.720436-4.822109c-2.103855-0.223418-4.319418-0.372364-6.441891-0.595782-11.264-1.172945-22.658327-2.2528-34.387782-3.109236-5.362036-0.390982-10.984727-0.577164-16.439854-0.912291-8.825018-0.521309-17.556945-1.098473-26.605382-1.414982a1285.008291 1285.008291 0 0 0-90.540218 0.055854c-9.048436 0.316509-17.780364 0.912291-26.605382 1.414982-5.455127 0.316509-11.077818 0.521309-16.439855 0.912291a1112.697018 1112.697018 0 0 0-34.387781 3.109237c-2.122473 0.223418-4.338036 0.372364-6.441891 0.595781a1066.3936 1066.3936 0 0 0-37.720437 4.822109l-0.949527 0.130328c-63.022545 9.309091-117.108364 23.514764-159.390254 40.401454a395.599127 395.599127 0 0 0-22.751419 9.923491c-0.800582 0.390982-1.657018 0.763345-2.4576 1.135709a296.178036 296.178036 0 0 0-17.594181 9.253237c-1.303273 0.744727-2.681018 1.470836-3.947055 2.234181a214.928291 214.928291 0 0 0-13.423709 8.620219c-1.601164 1.117091-3.258182 2.215564-4.784873 3.351272a153.302109 153.302109 0 0 0-9.793163 7.931346c-1.657018 1.452218-3.332655 2.904436-4.840728 4.393891a97.186909 97.186909 0 0 0-6.7584 7.298327 69.4272 69.4272 0 0 0-8.378182 12.027345 45.111855 45.111855 0 0 0-4.822109 12.288c-0.688873 2.960291-1.452218 5.976436-1.452218 8.973964 0 2.103855 0.242036 4.207709 0.577164 6.292946a18.562327 18.562327 0 0 1-0.577164 8.28509v138.221382c0.521309-0.484073 1.172945-0.949527 1.712873-1.4336 4.058764-3.574691 8.192-7.130764 12.846545-10.556509C168.475927 360.057018 308.726691 318.836364 512 318.836364c202.416873 0 342.313891 40.885527 412.746473 93.612218 5.622691 4.096 10.686836 8.322327 15.453091 12.623127l0.018618 0.018618v-138.221382a18.562327 18.562327 0 0 1-0.577164-8.28509c0.353745-2.085236 0.577164-4.189091 0.577164-6.292946 0-2.997527-0.763345-6.013673-1.470837-9.029818z m1.470837 385.247418v-138.221382a18.562327 18.562327 0 0 1-0.577164-8.285091c0.353745-2.085236 0.577164-4.189091 0.577164-6.292945 0-2.997527-0.763345-6.013673-1.470837-9.029818a45.800727 45.800727 0 0 0-4.822109-12.288 63.115636 63.115636 0 0 0-8.378181-12.027346 100.910545 100.910545 0 0 0-6.7584-7.298327c-1.508073-1.470836-3.165091-2.923055-4.840728-4.393891a153.302109 153.302109 0 0 0-9.793163-7.931345c-1.526691-1.135709-3.165091-2.234182-4.784873-3.351273-4.207709-2.904436-8.6016-5.790255-13.423709-8.620218-1.266036-0.763345-2.625164-1.489455-3.947055-2.234182a307.572364 307.572364 0 0 0-17.594182-9.253236c-0.800582-0.390982-1.6384-0.763345-2.4576-1.13571-6.981818-3.295418-14.280145-6.534982-22.081163-9.662836l-0.670255-0.260654c-42.281891-16.886691-96.367709-31.092364-159.390254-40.401455l-0.949528-0.130327a1024.558545 1024.558545 0 0 0-37.720436-4.822109c-2.103855-0.223418-4.319418-0.372364-6.441891-0.595782-11.264-1.172945-22.658327-2.2528-34.387782-3.109237-5.362036-0.390982-10.984727-0.577164-16.439854-0.91229-8.825018-0.521309-17.556945-1.098473-26.605382-1.414982a1285.008291 1285.008291 0 0 0-90.540218 0.055854c-9.048436 0.316509-17.780364 0.912291-26.605382 1.414982-5.455127 0.316509-11.077818 0.521309-16.439855 0.912291a1112.697018 1112.697018 0 0 0-34.387781 3.109236c-2.122473 0.223418-4.338036 0.372364-6.441891 0.595782a1066.3936 1066.3936 0 0 0-37.720437 4.822109l-0.949527 0.130328c-63.022545 9.309091-117.108364 23.514764-159.390254 40.401454a395.599127 395.599127 0 0 0-22.751419 9.923491c-0.800582 0.390982-1.657018 0.763345-2.4576 1.135709a296.178036 296.178036 0 0 0-17.594181 9.253236c-1.303273 0.744727-2.681018 1.470836-3.947055 2.234182a214.928291 214.928291 0 0 0-13.423709 8.620218c-1.601164 1.117091-3.258182 2.215564-4.784873 3.351273a153.302109 153.302109 0 0 0-9.793163 7.931346c-1.657018 1.452218-3.332655 2.904436-4.840728 4.393891a97.186909 97.186909 0 0 0-6.7584 7.298327 69.4272 69.4272 0 0 0-8.378182 12.027345 45.111855 45.111855 0 0 0-4.822109 12.288c-0.688873 2.960291-1.452218 5.976436-1.452218 8.973964 0 2.103855 0.242036 4.207709 0.577164 6.292945a18.562327 18.562327 0 0 1-0.577164 8.285091v138.221382c2.234182-2.029382 4.784873-4.021527 7.205237-6.032291 1.340509-1.117091 2.587927-2.234182 4.002909-3.351273 5.585455-4.393891 11.617745-8.731927 18.152727-12.958254 1.359127-0.875055 2.885818-1.731491 4.3008-2.606546a318.557091 318.557091 0 0 1 24.185018-13.60989c6.795636-3.462982 13.9264-6.832873 21.429527-10.091055 1.2288-0.539927 2.345891-1.098473 3.593309-1.619782 8.731927-3.705018 18.003782-7.242473 27.648-10.668218 2.6624-0.949527 5.455127-1.8432 8.192-2.774109 7.670691-2.587927 15.602036-5.064145 23.812655-7.465891 2.960291-0.856436 5.864727-1.750109 8.899491-2.569309 10.891636-3.016145 22.137018-5.883345 33.940945-8.527127 1.619782-0.372364 3.369891-0.670255 5.008291-1.024a849.622109 849.622109 0 0 1 43.715491-8.285091c10.556509-1.731491 21.429527-3.314036 32.581818-4.766255 2.8672-0.372364 5.604073-0.800582 8.508509-1.154327 13.851927-1.675636 28.187927-3.109236 42.91491-4.338036 3.630545-0.297891 7.410036-0.521309 11.096436-0.781964 11.785309-0.856436 23.831273-1.563927 36.156509-2.122473 4.486982-0.2048 8.955345-0.4096 13.535418-0.577163 16.048873-0.539927 32.395636-0.930909 49.338182-0.93091s33.289309 0.390982 49.338182 0.93091c4.561455 0.167564 9.029818 0.372364 13.535418 0.577163 12.325236 0.558545 24.3712 1.266036 36.156509 2.122473 3.6864 0.279273 7.447273 0.484073 11.096436 0.781964a1125.208436 1125.208436 0 0 1 42.91491 4.338036c2.904436 0.353745 5.641309 0.781964 8.508509 1.154327a1004.264727 1004.264727 0 0 1 43.994763 6.702546 849.622109 849.622109 0 0 1 32.302546 6.3488c1.6384 0.353745 3.388509 0.670255 5.008291 1.024a721.957236 721.957236 0 0 1 33.940945 8.527127c3.034764 0.837818 5.9392 1.712873 8.899491 2.569309a611.979636 611.979636 0 0 1 23.812655 7.465891c2.736873 0.930909 5.5296 1.824582 8.192 2.774109a491.371055 491.371055 0 0 1 27.648 10.668218c1.247418 0.521309 2.364509 1.079855 3.593309 1.619782a398.000873 398.000873 0 0 1 28.2624 13.684364c6.088145 3.258182 11.8784 6.590836 17.352145 10.016581 1.414982 0.875055 2.941673 1.731491 4.3008 2.606546 6.534982 4.226327 12.567273 8.545745 18.152727 12.958254 1.396364 1.117091 2.643782 2.234182 4.002909 3.351273 2.420364 2.010764 4.971055 4.002909 7.205237 6.032291zM512 858.763636c252.369455 0 428.218182-73.579055 428.218182-139.636363s-175.848727-139.636364-428.218182-139.636364-428.218182 73.579055-428.218182 139.636364S259.630545 858.763636 512 858.763636z m428.218182-813.6704a18.990545 18.990545 0 0 1-0.595782-2.513454C929.065891-21.820509 754.706618-90.763636 512-90.763636S94.934109-21.820509 84.3776 42.579782a20.293818 20.293818 0 0 1-0.595782 2.438982v156.653381c0.521309-0.484073 1.172945-0.949527 1.712873-1.4336 4.058764-3.574691 8.192-7.130764 12.846545-10.556509C168.475927 136.638836 308.726691 95.418182 512 95.418182c202.416873 0 342.313891 40.885527 412.746473 93.612218 5.622691 4.096 10.686836 8.322327 15.453091 12.623127l0.018618 0.018618v-156.578909z"  horiz-adv-x="1024" />

    
    <glyph glyph-name="tag" unicode="&#58883;" d="M956.988 512.716l-32.189 203.656c-6.135 39.13-43.123 76.158-82.036 82.373l-202.965 32.215c-5.238 0.828-10.759 1.226-16.458 1.226-36.764 0-81.008-16.542-105.166-40.793l-432.461-433.969c-27.883-27.968-27.883-73.793 0-101.806l297.821-298.811c13.958-13.991 32.364-20.993 50.764-20.993 18.388 0 36.768 6.992 50.707 20.993l432.482 433.925c40.919 41.055 45.658 82.897 39.502 121.983v0zM878.235 430.027l-432.507-433.949c-4.038-4.055-8.896-4.661-11.431-4.661-2.553 0-7.448 0.613-11.514 4.687l-297.795 298.787c-6.282 6.31-6.295 16.948-0.021 23.241l432.47 433.977c13.216 13.267 43.396 24.475 65.904 24.475 2.889 0 5.518-0.184 7.779-0.541l202.964-32.215c7.036-1.143 15.744-6.204 22.741-13.223 7.014-7.037 12.061-15.797 13.167-22.862l0.006-0.034 0.005-0.035 32.184-203.627c4.082-25.911 1.571-48.414-23.95-74.021v0zM698.198 664.28c-48.93 0-88.601-39.76-88.601-88.798 0-49.082 39.672-88.797 88.622-88.797 48.907 0 88.601 39.803 88.579 88.797-0.044 49.038-39.716 88.798-88.601 88.798v0z"  horiz-adv-x="1024" />

    
    <glyph glyph-name="book" unicode="&#58920;" d="M924.2624 753.8176h-255.42656c-48.4096 0-93.9008-17.88416-128.19456-50.47808-11.6736-11.06944-20.79744-23.83872-28.70272-37.0944-7.9104 13.25568-17.02912 25.9072-28.8256 37.0944-34.304 32.59392-79.79008 50.47296-128.19968 50.47296H99.7376c-13.49632 0-24.44288-10.33216-24.44288-23.22944V88.6272c0-12.89216 10.94656-23.22944 24.448-23.22944h229.75488c9.61024 0 19.34336-0.73216 29.07136-2.54976 9.85088-1.83296 19.21536-4.38272 28.09344-7.79264l116.4032-43.05408c0.24064-0.11776 0.4864 0 0.72704-0.11776 2.67776-0.85504 5.35552-1.4592 8.15104-1.4592 2.80064 0 5.46816 0.48128 8.15104 1.4592 0.11776 0.11776 0.4864 0.11776 0.60928 0.11776l111.77472 41.35424a203.5456 203.5456 0 0 0 32.96256 9.00096 197.7344 197.7344 0 0 0 34.048 3.04128h224.77312c13.50656 0 24.45312 10.46016 24.45312 23.22944V730.70592c0 12.7744-10.94656 23.10656-24.45312 23.10656zM367.4368 108.56448a220.9792 220.9792 0 0 1-37.94944 3.28704H124.06272V707.4816h230.97344c35.38944 0 68.72064-13.13792 93.7728-37.09952 25.05728-23.83872 38.92224-55.45984 38.92224-89.27744v-513.39776l-83.31776 30.77632a232.15616 232.15616 0 0 1-36.97152 10.09152z m532.49536 3.28704h-200.33024c-14.592 0-29.18912-1.21344-43.04896-3.77344-14.11072-2.67264-28.22144-6.44096-41.6-11.43296l-78.57152-28.94848V581.2224c0 33.6896 13.74208 65.4336 38.79936 89.27744 25.05216 23.83872 58.38336 37.0944 93.7728 37.0944h231.09632v-595.7376h-0.11776z"  horiz-adv-x="1024" />

    
    <glyph glyph-name="download1" unicode="&#59203;" d="M430.58176 355.61984h-41.37984a161.4848 161.4848 0 0 1 41.37984 0zM840.92416 355.61984c-6.1952 0-11.22304-5.02272-11.22304-11.22304v-203.85792c0-32.43008-25.89184-58.67008-57.76384-58.67008H252.0576c-31.92832 0-57.76384 26.25024-57.76384 58.67008v203.85792c0 6.1952-5.02272 11.22304-11.22304 11.22304h-35.31776c-6.1952 0-11.22304-5.02272-11.22304-11.22304v-200.17664c0-64.78848 51.72224-117.33504 115.52256-117.33504l519.86944-0.00512c63.80032 0 115.53792 52.5312 115.53792 117.32992v200.18688c0 6.1952-5.02272 11.22304-11.22304 11.22304h-35.31264zM697.68192 429.3888c-3.1232 6.784-10.01472 10.84416-17.34656 10.85952l-102.13888 0.39936v306.38592c0 4.93056-3.99872 8.92928-8.92928 8.92928h-117.87776c-5.05856 0-8.90368-4.22912-8.90368-9.2928 0-29.17376-0.70656-55.41376-0.70656-79.27296v-226.20672l-104.38144 0.38912c-7.36768 0.04096-13.85472-3.98848-16.4096-10.71616-2.51904-6.67136-0.60416-14.49984 4.81792-19.66592l181.14048-216.66304c7.40864-7.04 19.06176-7.09632 25.86112-0.04608l161.72032 215.23968c3.42528 3.4816 5.07392 8.09472 4.84352 12.71296a18.2016 18.2016 0 0 1-1.6896 6.94784z"  horiz-adv-x="1024" />

    
    <glyph glyph-name="notice" unicode="&#58880;" d="M513 830.9c-246.7 0-446.7-200-446.7-446.7s200-446.7 446.7-446.7 446.7 200 446.7 446.7-200 446.7-446.7 446.7zM547.2 202.4c-0.2-11.3-6.1-31.2-11.5-32-12.3-1.7-28.6 2.6-38.6 10.5-30.9 24.2-59 51.9-89.6 76.6-9.1 7.3-22.4 12.1-34.1 12.9-27.1 1.9-54.4 0.9-81.6 0.6-15.8-0.2-24.8 7.2-24.8 22.7-0.1 57.4 0.3 114.8 0.9 172.3 0.2 15.8 8.6 22.7 24.7 22.4 30.2-0.6 60.5-1 90.7 0.3 9.5 0.4 20.6 4.5 27.7 10.7 30.7 26.9 59.7 55.7 90.4 82.5 8.1 7 21.4 14.2 30.6 12.4 15.9-3 15.8-19.3 15.7-33.4-0.2-60.5-0.1-121-0.1-181.5 0.2-59.1 0.8-118.1-0.4-177zM585.5 270.3c-13.6 11.5-5.2 20.6 3.3 30.4 46.2 53.3 45.8 109.3-0.9 165.3-8.3 9.9-23 18.7-6.1 33.2 15.8 13.5 27.2 5.6 38.3-7.3 28.7-33.2 46.1-70.6 45.8-107.5 0-49.5-17.4-83.5-46.5-112.4-11.1-11.3-22.2-11.6-33.9-1.7zM757 370.9c-1.1-67.2-34.2-116.4-83.6-157.2-12.8-10.5-23.8-8.9-33.7 1.9-10.4 11.3-3.3 20.8 6.1 28.8 97.6 82.1 63.7 210.5 1.1 268.9-12 11.2-13.6 21.3-3.3 32.9 10.3 11.6 22.1 12.1 33.6 1.2 51.3-47.9 85.6-103.5 79.8-176.5z"  horiz-adv-x="1024" />

    
    <glyph glyph-name="gonggao" unicode="&#58897;" d="M512 896c280 0 512-228.416 512-512s-224-512-512-512S0 100.416 0 384 232 896 512 896z m40-732.544V604.544s-16 39.392-48 7.872c-32-31.488-120-110.272-120-110.272H256c-8 0-24 0-24-31.488V281.6c0-15.744 8-23.616 24-23.616h120l128-110.304c16-7.872 48-15.744 48 15.776z m240 204.8c8 78.752-32 149.664-96 204.8-24 15.744-48-15.776-40-31.52 48-39.36 80-102.4 80-173.28 0-63.04-32-110.272-80-149.664-16-23.648 24-39.392 32-31.52 64 47.264 104 110.272 104 181.184zM640 376.128c0-39.36-24-70.912-48-94.528-16-15.744 16-39.36 32-31.52 40 31.52 64 78.784 64 126.048 0 55.136-24 102.4-64 141.76-24 15.776-48-15.744-40-23.616 40-39.36 56-78.752 56-118.144z"  horiz-adv-x="1024" />

    
    <glyph glyph-name="mail" unicode="&#59087;" d="M963.999 768h-904c-33 0-60-27.295-60-60.655v-646.69c0-33.36 27-60.655 60-60.655h904c33 0 60 27.295 60 60.655v646.69c0 33.36-27 60.655-60 60.655z m0-60.655v-18.073a29.729 29.729 0 0 1-4.569-2.139L511.999 428.809 64.568 687.133a29.962 29.962 0 0 1-4.569 2.139v18.073h904z m-904-646.69V620.489l432.463-249.683c5.511-4.532 12.476-6.937 19.537-6.856 7.061-0.081 14.026 2.324 19.537 6.856l432.463 249.683v-559.834h-904z"  horiz-adv-x="1024" />

    
    <glyph glyph-name="Refresh" unicode="&#58894;" d="M768 711.6800000000001V768c0 30.72 20.48 51.2 51.2 51.2s51.2-20.48 51.2-51.2v-204.8c0-30.72-20.48-51.2-51.2-51.2h-204.8c-30.72 0-51.2 20.48-51.2 51.2s20.48 51.2 51.2 51.2h112.64c-56.32 46.08-128 76.8-204.8 76.8C348.16 691.2 204.8 547.8399999999999 204.8 373.76c0-174.08 143.36-317.44 317.44-317.44 138.24 0 256 87.04 302.08 215.04 10.24 25.6 35.84 40.96 66.56 30.72 25.6-10.24 40.96-35.84 30.72-66.56-56.32-168.96-215.04-286.72-399.36-286.72-230.4 0-419.84 189.44-419.84 419.84C102.4 604.1600000000001 291.84 793.6 522.24 793.6c87.04 0 174.08-30.72 245.76-81.92z"  horiz-adv-x="1024" />

    
    <glyph glyph-name="remen" unicode="&#58895;" d="M411.672-54.08c-52.253 28.864-89.675 79.616-91.803 139.327-3.09 111.553 80.061 166.273 129.294 241.026 70.448 107.52 51.223 174.207 51.223 174.207s58.775-30.848 92.97-145.344c10.643-33.856 12.84-67.776 9.613-99.649-5.288-80.64-42.71-153.28-42.71-153.28s65.163 12.93 83.29 123.457c30.006-28.864 57.746-70.656 60.904-114.496 5.357-75.712-42.64-145.344-115.355-175.168 125.861 26.88 215.81 126.4 246.778 199.104 39.481 91.52 28.838 173.183 22.384 243.904C849.745 475.52 886 547.264 886 547.264s-69.419-18.944-120.711-97.536c-23.482-35.904-33.095-88.575-33.095-88.575s5.356 46.72-27.81 132.35c-33.026 83.65-63.033 113.473-81.229 175.17C599.741 751.36 651.994 832 651.994 832s-207.09-35.904-301.158-204.096c-83.288-149.312-49.095-238.976-49.095-238.976s-35.293 30.912-53.42 73.728c-18.127 42.817-14.075 81.6-14.075 81.6S87.03 392.96 158.646 202.753C206.711 69.376 299.545-18.24 411.672-54.08"  horiz-adv-x="1024" />

    
    <glyph glyph-name="icon-" unicode="&#59133;" d="M997.601918 409.988809H961.790568a448.358114 448.358114 0 0 1-113.573142 274.007994l25.988809 25.988809a25.579536 25.579536 0 1 1-36.220623 36.220623l-26.807355-25.988809A448.358114 448.358114 0 0 1 537.170264 834.609113V870.420464a25.579536 25.579536 0 0 1-51.159073 0V834.609113a448.358114 448.358114 0 0 1-274.007994-114.391687L186.014388 746.206235a25.579536 25.579536 0 1 1-36.220623-36.220623l25.988809-25.988809A448.358114 448.358114 0 0 1 61.390887 409.988809H25.579536a25.579536 25.579536 0 0 1 0-51.159073H61.390887a448.358114 448.358114 0 0 1 114.391687-274.007993l-25.988809-25.988809a25.579536 25.579536 0 0 1 36.220623-36.220624l25.988809 25.988809A448.358114 448.358114 0 0 1 486.011191-65.79056800000001v-36.629896a25.579536 25.579536 0 0 1 51.159073 0V-65.79056800000001a448.358114 448.358114 0 0 1 274.007993 113.573142l25.988809-25.988809a25.579536 25.579536 0 1 1 36.220624 36.220623l-25.988809 25.988809A448.358114 448.358114 0 0 1 961.790568 358.829736h36.629896a25.579536 25.579536 0 0 1 0 51.159073zM511.590727-14.631494999999973A399.040767 399.040767 0 1 0 910.631495 384.409273 399.45004 399.45004 0 0 0 511.590727-14.631494999999973zM511.590727 635.0887290000001A250.679456 250.679456 0 1 1 762.270184 384.409273 250.884093 250.884093 0 0 1 511.590727 635.0887290000001z m0-450.19984A199.520384 199.520384 0 1 0 711.111111 384.409273 199.72502 199.72502 0 0 0 511.590727 184.88888899999995z"  horiz-adv-x="1024" />

    
    <glyph glyph-name="icon-1" unicode="&#59141;" d="M1013.76 311.9104a230.8096 230.8096 0 0 1-128 206.6432 373.76 373.76 0 0 1-747.3152 0 230.8096 230.8096 0 0 1 80.0768-436.4288h2.048a20.48 20.48 0 0 1 20.48 20.48V521.216a20.48 20.48 0 0 1-20.48 20.48h-2.048a229.1712 229.1712 0 0 1-28.0576-4.7104 322.1504 322.1504 0 0 0 643.072 0 229.376 229.376 0 0 1-28.0576 4.7104h-2.048a20.48 20.48 0 0 1-20.48-20.48v-418.6112a20.48 20.48 0 0 1 20.48-20.48h2.048a229.376 229.376 0 0 1 26.0096 4.096 191.2832 191.2832 0 0 0-188.0064-158.1056h-126.3616a25.6 25.6 0 0 1 0-51.2h126.3616a242.4832 242.4832 0 0 1 241.664 227.7376 230.8096 230.8096 0 0 1 128.6144 207.2576zM189.8496 139.67359999999996a179.8144 179.8144 0 0 0 0 344.6784z m644.3008 0V484.1472a179.8144 179.8144 0 0 0 0-344.6784z"  horiz-adv-x="1024" />

    


  </font>
</defs>
</svg>
